<svg xmlns="http://www.w3.org/2000/svg" xmlns:xlink="http://www.w3.org/1999/xlink" fill="none" version="1.1" width="24" height="24" viewBox="0 0 24 24"><defs><clipPath id="master_svg0_60_12134"><rect x="0" y="0" width="24" height="24" rx="0"/></clipPath></defs><g clip-path="url(#master_svg0_60_12134)"><g><path d="M18.2223,13L18.2223,8C18.2223,4.68629,15.536,2,12.22228,2L11.77783,2C8.464120000000001,2,5.77783,4.68629,5.77783,8L5.77783,14L5.5,14Q5.42631,14,5.35297,14.0072Q5.2796400000000006,14.0144,5.2073599999999995,14.0288Q5.13509,14.0432,5.06457,14.0646Q4.9940560000000005,14.086,4.925975,14.1142Q4.857894,14.1424,4.792905,14.1771Q4.7279160000000005,14.2119,4.666645,14.2528Q4.605373,14.2937,4.54841,14.3405Q4.491447,14.3872,4.43934,14.4393Q4.387233,14.4914,4.340484,14.5484Q4.293736,14.6054,4.252796,14.6666Q4.211855,14.7279,4.177118,14.7929Q4.142381,14.8579,4.114181,14.926Q4.0859806,14.9941,4.0645895,15.0646Q4.0431983,15.1351,4.0288221,15.2074Q4.0144458,15.2796,4.00722291,15.353Q4,15.4263,4,15.5Q4,15.5737,4.00722291,15.647Q4.0144458,15.7204,4.0288221,15.7926Q4.0431983,15.8649,4.0645895,15.9354Q4.0859806,16.0059,4.114181,16.073999999999998Q4.142381,16.1421,4.177118,16.2071Q4.211855,16.272100000000002,4.252796,16.333399999999997Q4.293736,16.3946,4.340484,16.4516Q4.387233,16.5086,4.43934,16.5607Q4.491447,16.6128,4.54841,16.6595Q4.605373,16.7063,4.666645,16.7472Q4.7279160000000005,16.7881,4.792905,16.8229Q4.857894,16.857599999999998,4.925975,16.8858Q4.9940560000000005,16.914,5.06457,16.9354Q5.13509,16.9568,5.2073599999999995,16.9712Q5.2796400000000006,16.985599999999998,5.35297,16.992800000000003Q5.42631,17,5.5,17L18.5,17Q18.573700000000002,17,18.647,16.992800000000003Q18.720399999999998,16.985599999999998,18.7926,16.9712Q18.8649,16.9568,18.9354,16.9354Q19.0059,16.914,19.073999999999998,16.8858Q19.1421,16.857599999999998,19.2071,16.8229Q19.272100000000002,16.7881,19.333399999999997,16.7472Q19.3946,16.7063,19.4516,16.6595Q19.5086,16.6128,19.5607,16.5607Q19.6128,16.5086,19.6595,16.4516Q19.7063,16.3946,19.7472,16.333399999999997Q19.7881,16.272100000000002,19.8229,16.2071Q19.857599999999998,16.1421,19.8858,16.073999999999998Q19.914,16.0059,19.9354,15.9354Q19.9568,15.8649,19.9712,15.7926Q19.985599999999998,15.7204,19.992800000000003,15.647Q20,15.5737,20,15.5Q20,15.4263,19.992800000000003,15.353Q19.985599999999998,15.2796,19.9712,15.2074Q19.9568,15.1351,19.9354,15.0646Q19.914,14.9941,19.8858,14.926Q19.857599999999998,14.8579,19.8229,14.7929Q19.7881,14.7279,19.7472,14.6666Q19.7063,14.6054,19.6595,14.5484Q19.6128,14.4914,19.5607,14.4393Q19.5086,14.3872,19.4516,14.3405Q19.3946,14.2937,19.333399999999997,14.2528Q19.272100000000002,14.2119,19.2071,14.1771Q19.1421,14.1424,19.073999999999998,14.1142Q19.0059,14.086,18.9354,14.0646Q18.8649,14.0432,18.7926,14.0288Q18.720399999999998,14.0144,18.647,14.0072Q18.573700000000002,14,18.5,14L18.2223,14L18.2223,13ZM8.2423,4.46447Q9.70676,3,11.77783,3L12.22227,3Q14.2933,3,15.7578,4.46447Q17.2223,5.928929999999999,17.2223,8L17.2223,15L18.5,15Q19,15,19,15.5Q19,16,18.5,16L5.5,16Q5,16,5,15.5Q5,15,5.5,15L6.77783,15L6.77783,8Q6.77783,5.928929999999999,8.2423,4.46447Z" fill-rule="evenodd" fill="#EF89FF" fill-opacity="1"/></g><g><rect x="9.5" y="18.5" width="5" height="2" rx="1" fill-opacity="0" stroke-opacity="1" stroke="#EF89FF" fill="none" stroke-width="1"/></g></g></svg>