<svg xmlns="http://www.w3.org/2000/svg" xmlns:xlink="http://www.w3.org/1999/xlink" fill="none" version="1.1" width="24" height="24" viewBox="0 0 24 24"><defs><clipPath id="master_svg0_44_28119"><rect x="0" y="0" width="24" height="24" rx="0"/></clipPath></defs><g clip-path="url(#master_svg0_44_28119)"><g transform="matrix(-1,0,0,-1,33.999755859375,28.99951171875)"><path d="M21.9998779296875,15.206862859375L26.6463279296875,19.853305859375Q26.7166479296875,19.923635859375,26.8085379296875,19.961695859375Q26.9004179296875,19.999755859375,26.9998779296875,19.999755859375Q27.0490779296875,19.999755859375,27.0973779296875,19.990145859374998Q27.1456779296875,19.980535859375,27.1911779296875,19.961695859375Q27.236677929687502,19.942845859374998,27.2776779296875,19.915485859375Q27.3185779296875,19.888125859375002,27.3534779296875,19.853305859375Q27.3882779296875,19.818485859375002,27.4155779296875,19.777535859375Q27.4429779296875,19.736595859375,27.4617779296875,19.691095859375Q27.480677929687502,19.645595859375,27.4902779296875,19.597305859375Q27.4998779296875,19.549005859375,27.4998779296875,19.499755859375Q27.4998779296875,19.400295859375,27.4617779296875,19.308415859375Q27.4237779296875,19.216525859375,27.3534779296875,19.146205859375L22.3534279296875,14.146202859375Q22.2831079296875,14.075875859375,22.1912179296875,14.037815859375Q22.0993379296875,13.999755859375,21.9998779296875,13.999755859375Q21.9004179296875,13.999755859375,21.8085379296875,14.037815859375Q21.7166479296875,14.075875859375,21.6463279296875,14.146202859375L16.6464819296875,19.146045859375L16.6463249296875,19.146205859375Q16.5759979296875,19.216525859375,16.5379379296875,19.308415859375Q16.4998779296875,19.400295859375,16.4998779296875,19.499755859375Q16.4998779296875,19.549005859375,16.5094849296875,19.597305859375Q16.5190929296875,19.645595859375,16.5379379296875,19.691095859375Q16.5567839296875,19.736595859375,16.5841429296875,19.777535859375Q16.6115029296875,19.818485859375002,16.6463249296875,19.853305859375Q16.6811469296875,19.888125859375002,16.7220929296875,19.915485859375Q16.7630389296875,19.942845859374998,16.8085359296875,19.961695859375Q16.8540329296875,19.980535859375,16.9023328296875,19.990145859374998Q16.9506322296875,19.999755859375,16.9998779296875,19.999755859375Q17.0993341296875,19.999755859375,17.1912199296875,19.961695859375Q17.2831049296875,19.923635859375,17.3534309296875,19.853305859375L17.3535879296875,19.853155859375L21.9998779296875,15.206862859375Z" fill-rule="evenodd" fill="#111111" fill-opacity="1"/></g></g></svg>