<svg xmlns="http://www.w3.org/2000/svg" xmlns:xlink="http://www.w3.org/1999/xlink" fill="none" version="1.1" width="24" height="24" viewBox="0 0 24 24"><defs><clipPath id="master_svg0_44_27862"><rect x="0" y="0" width="24" height="24" rx="0"/></clipPath></defs><g clip-path="url(#master_svg0_44_27862)"><g><path d="M2.049999952316284,12.999999885559083L7.5269999523162845,12.999999885559083C7.698119952316284,16.166899885559083,8.707549952316285,19.23139988555908,10.451999952316283,21.879999885559084C5.958329952316284,21.17409988555908,2.5063819523162842,17.52579988555908,2.049999952316284,12.999999885559083ZM2.049999952316284,10.999999885559083C2.5063819523162842,6.474179885559082,5.958329952316284,2.825849885559082,10.451999952316283,2.119999885559082C8.707549952316285,4.768609885559082,7.698119952316284,7.833149885559082,7.5269999523162845,10.999999885559083L2.049999952316284,10.999999885559083ZM21.949999952316283,10.999999885559083L16.472999952316286,10.999999885559083C16.301899952316283,7.833149885559082,15.292399952316284,4.768609885559082,13.547999952316284,2.119999885559082C18.041699952316286,2.825850885559082,21.493599952316284,6.474179885559082,21.949999952316283,10.999999885559083ZM21.949999952316283,12.999999885559083C21.493599952316284,17.52579988555908,18.041699952316286,21.17409988555908,13.547999952316284,21.879999885559084C15.292399952316284,19.23139988555908,16.301899952316283,16.166899885559083,16.472999952316286,12.999999885559083L21.950999952316284,12.999999885559083L21.949999952316283,12.999999885559083ZM9.529999952316285,12.999999885559083L14.469999952316284,12.999999885559083C14.305399952316284,15.699499885559081,13.455299952316285,18.31239988555908,11.999999952316283,20.591999885559083C10.544699952316284,18.31239988555908,9.694589952316285,15.699499885559081,9.529999952316285,12.999999885559083ZM9.529999952316285,10.999999885559083C9.694589952316285,8.300519885559082,10.544699952316284,5.687559885559082,11.999999952316283,3.4079998855590823C13.455299952316285,5.687559885559082,14.305399952316284,8.300519885559082,14.469999952316284,10.999999885559083L9.529999952316285,10.999999885559083Z" fill="#111111" fill-opacity="1"/></g></g></svg>