<svg xmlns="http://www.w3.org/2000/svg" xmlns:xlink="http://www.w3.org/1999/xlink" fill="none" version="1.1" width="24" height="24" viewBox="0 0 24 24"><defs><clipPath id="master_svg0_44_28113"><rect x="0" y="0" width="24" height="24" rx="0"/></clipPath></defs><g clip-path="url(#master_svg0_44_28113)"><g><path d="M6,11.5L18,11.5Q18.0492,11.5,18.0975,11.509607Q18.1458,11.519214999999999,18.1913,11.53806Q18.236800000000002,11.556906,18.2778,11.584265Q18.3187,11.611625,18.3536,11.646447Q18.3884,11.681269,18.4157,11.722215Q18.4431,11.763161,18.4619,11.808658Q18.480800000000002,11.854155,18.4904,11.9024549Q18.5,11.9507543,18.5,12Q18.5,12.0492457,18.4904,12.0975451Q18.480800000000002,12.145845,18.4619,12.191342Q18.4431,12.236839,18.4157,12.277785Q18.3884,12.318731,18.3536,12.353553Q18.3187,12.388375,18.2778,12.415735Q18.236800000000002,12.443094,18.1913,12.46194Q18.1458,12.480785000000001,18.0975,12.490393Q18.0492,12.5,18,12.5L6,12.5Q5.9507543,12.5,5.9024549,12.490393Q5.854155,12.480785000000001,5.808658,12.46194Q5.763161,12.443094,5.722215,12.415735Q5.681269,12.388375,5.646447,12.353553Q5.611625,12.318731,5.584265,12.277785Q5.556906,12.236839,5.53806,12.191342Q5.519215,12.145845,5.509607,12.0975451Q5.5,12.0492457,5.5,12Q5.5,11.9507543,5.509607,11.9024549Q5.519215,11.854155,5.53806,11.808658Q5.556906,11.763161,5.584265,11.722215Q5.611625,11.681269,5.646447,11.646447Q5.681269,11.611625,5.722215,11.584265Q5.763161,11.556906,5.808658,11.53806Q5.854155,11.519214999999999,5.9024549,11.509607Q5.9507543,11.5,6,11.5Z" fill-rule="evenodd" fill="#EF89FF" fill-opacity="1"/></g><g><path d="M6,6.5L18,6.5Q18.0492,6.5,18.0975,6.509607Q18.1458,6.519215,18.1913,6.53806Q18.236800000000002,6.556906,18.2778,6.584265Q18.3187,6.611625,18.3536,6.646447Q18.3884,6.681269,18.4157,6.722215Q18.4431,6.763161,18.4619,6.808658Q18.480800000000002,6.854155,18.4904,6.9024549Q18.5,6.9507543,18.5,7Q18.5,7.0492457,18.4904,7.0975451Q18.480800000000002,7.145845,18.4619,7.191342Q18.4431,7.236839,18.4157,7.277785Q18.3884,7.318731,18.3536,7.353553Q18.3187,7.388375,18.2778,7.415735Q18.236800000000002,7.443094,18.1913,7.46194Q18.1458,7.480785,18.0975,7.490393Q18.0492,7.5,18,7.5L6,7.5Q5.9507543,7.5,5.9024549,7.490393Q5.854155,7.480785,5.808658,7.46194Q5.763161,7.443094,5.722215,7.415735Q5.681269,7.388375,5.646447,7.353553Q5.611625,7.318731,5.584265,7.277785Q5.556906,7.236839,5.53806,7.191342Q5.519215,7.145845,5.509607,7.0975451Q5.5,7.0492457,5.5,7Q5.5,6.9507543,5.509607,6.9024549Q5.519215,6.854155,5.53806,6.808658Q5.556906,6.763161,5.584265,6.722215Q5.611625,6.681269,5.646447,6.646447Q5.681269,6.611625,5.722215,6.584265Q5.763161,6.556906,5.808658,6.53806Q5.854155,6.519215,5.9024549,6.509607Q5.9507543,6.5,6,6.5Z" fill-rule="evenodd" fill="#EF89FF" fill-opacity="1"/></g><g><path d="M6,16.5L18,16.5Q18.0492,16.5,18.0975,16.509607Q18.1458,16.519215,18.1913,16.53806Q18.236800000000002,16.556906,18.2778,16.584265Q18.3187,16.611625,18.3536,16.646447Q18.3884,16.681269,18.4157,16.722215Q18.4431,16.763161,18.4619,16.808658Q18.480800000000002,16.854155,18.4904,16.9024549Q18.5,16.9507543,18.5,17Q18.5,17.0492457,18.4904,17.0975451Q18.480800000000002,17.145845,18.4619,17.191342Q18.4431,17.236839,18.4157,17.277785Q18.3884,17.318731,18.3536,17.353553Q18.3187,17.388375,18.2778,17.415735Q18.236800000000002,17.443094,18.1913,17.46194Q18.1458,17.480785,18.0975,17.490393Q18.0492,17.5,18,17.5L6,17.5Q5.9507543,17.5,5.9024549,17.490393Q5.854155,17.480785,5.808658,17.46194Q5.763161,17.443094,5.722215,17.415735Q5.681269,17.388375,5.646447,17.353553Q5.611625,17.318731,5.584265,17.277785Q5.556906,17.236839,5.53806,17.191342Q5.519215,17.145845,5.509607,17.0975451Q5.5,17.0492457,5.5,17Q5.5,16.9507543,5.509607,16.9024549Q5.519215,16.854155,5.53806,16.808658Q5.556906,16.763161,5.584265,16.722215Q5.611625,16.681269,5.646447,16.646447Q5.681269,16.611625,5.722215,16.584265Q5.763161,16.556906,5.808658,16.53806Q5.854155,16.519215,5.9024549,16.509607Q5.9507543,16.5,6,16.5Z" fill-rule="evenodd" fill="#EF89FF" fill-opacity="1"/></g></g></svg>