<svg xmlns="http://www.w3.org/2000/svg" xmlns:xlink="http://www.w3.org/1999/xlink" fill="none" version="1.1" width="24" height="24" viewBox="0 0 24 24"><defs><clipPath id="master_svg0_44_28116"><rect x="0" y="0" width="24" height="24" rx="0"/></clipPath></defs><g clip-path="url(#master_svg0_44_28116)"><g><g><path d="M11.641449999999999,4.792385C11.63467,4.816748,11.630040000000001,4.841956,11.62778,4.867733Q11.57278,5.495581,11.32833,6.0857399999999995Q11.0129,6.84725,10.43007,7.430070000000001Q9.847249999999999,8.0129,9.08574,8.32832Q8.495581,8.57278,7.8677340000000004,8.62778C7.8419550000000005,8.630040000000001,7.816744,8.63467,7.792379,8.641449999999999C7.626616,8.66677,7.5,8.81471,7.5,8.99062L7.500119938,9L7.5,9.00937C7.5,9.18529,7.626618,9.33324,7.792385,9.358550000000001C7.816748,9.36533,7.841956,9.369959999999999,7.867733,9.37222Q8.495581,9.42722,9.08574,9.671669999999999Q9.847249999999999,9.9871,10.43007,10.56993Q11.0129,11.152750000000001,11.32832,11.914259999999999Q11.57278,12.50442,11.62778,13.13227C11.630040000000001,13.15804,11.63467,13.18326,11.641449999999999,13.20762C11.66677,13.37338,11.81471,13.5,11.99062,13.5L12,13.49988C12.00312,13.49996,12.00624,13.5,12.00937,13.5C12.18529,13.5,12.33324,13.37338,12.358550000000001,13.20761C12.36533,13.18325,12.369959999999999,13.15804,12.37222,13.13227Q12.42722,12.50442,12.671669999999999,11.914259999999999Q12.9871,11.152750000000001,13.56993,10.56993Q14.152750000000001,9.9871,14.914259999999999,9.67168Q15.50442,9.42722,16.13227,9.37222C16.15804,9.369959999999999,16.18325,9.36533,16.20762,9.358550000000001C16.373379999999997,9.33324,16.5,9.18529,16.5,9.00938L16.499879999999997,9L16.5,8.99063C16.5,8.81471,16.373379999999997,8.66676,16.207610000000003,8.641449999999999C16.18325,8.63467,16.15804,8.630040000000001,16.13227,8.62778Q15.50442,8.57278,14.914259999999999,8.32833Q14.152750000000001,8.0129,13.56993,7.430070000000001Q12.9871,6.84725,12.67168,6.08575Q12.42722,5.495581,12.37222,4.8677340000000004C12.369959999999999,4.841956,12.36533,4.816745,12.358550000000001,4.79238C12.33323,4.626616,12.18529,4.5,12.00938,4.5L12,4.500119938C11.99688,4.5000401439,11.99376,4.5,11.99063,4.5C11.81471,4.5,11.66676,4.626618,11.641449999999999,4.792385ZM12,6.375Q11.62922,7.26507,10.94715,7.94714Q10.26507,8.62922,9.375,9Q10.26507,9.37078,10.947140000000001,10.05285Q11.62922,10.73493,12,11.625Q12.37078,10.73493,13.05285,10.052859999999999Q13.73493,9.37078,14.625,9Q13.73493,8.62922,13.052859999999999,7.947150000000001Q12.37078,7.26507,12,6.375Z" fill-rule="evenodd" fill="#EF89FF" fill-opacity="1"/></g><g><rect x="3" y="14.25" width="18" height="5.25" rx="2.625" fill="#EF89FF" fill-opacity="1"/><rect x="3.5" y="14.75" width="17" height="4.25" rx="2.125" fill-opacity="0" stroke-opacity="1" stroke="#EF89FF" fill="none" stroke-width="1"/></g></g></g></svg>