<svg xmlns="http://www.w3.org/2000/svg" xmlns:xlink="http://www.w3.org/1999/xlink" fill="none" version="1.1" width="24" height="24" viewBox="0 0 24 24"><defs><clipPath id="master_svg0_44_28112"><rect x="0" y="0" width="24" height="24" rx="0"/></clipPath><linearGradient x1="-0.10158691555261612" y1="-0.16058214008808136" x2="1.1511472024841958" y2="1.0557180938726276" id="master_svg1_25_35171"><stop offset="0%" stop-color="#7F00FF" stop-opacity="1"/><stop offset="100%" stop-color="#EF89FF" stop-opacity="1"/></linearGradient></defs><g clip-path="url(#master_svg0_44_28112)"><g><path d="M4.834075326766968,4.321549979019165L4.833995326766968,4.545839979019165L4.833965326766968,4.640259979019165L4.868365326766968,4.728179979019165Q5.481035326766968,6.294089979019165,4.638745326766967,7.750429979019165Q3.7985553267669676,9.208959979019166,2.1342453267669677,9.460619979019164L1.7903243267669677,9.512629979019165L1.7194803267669678,9.853159979019164Q1.2727583267669678,12.000499979019166,1.7194803267669678,14.147799979019165L1.7903363267669679,14.488399979019166L2.134323326766968,14.540399979019165Q3.7983453267669676,14.791699979019166,4.639205326766968,16.250399979019164Q5.481535326766968,17.706399979019167,4.868395326766968,19.272799979019165L4.7418753267669675,19.595999979019165L5.000475326766968,19.827499979019166Q6.635295326766967,21.291199979019165,8.719755326766968,21.976999979019165L9.049935326766967,22.085599979019165L9.266775326766968,21.813899979019165Q10.316655326766968,20.498599979019165,12.000485326766968,20.499999979019165Q13.683185326766967,20.498299979019166,14.733285326766968,21.812999979019164L14.950185326766968,22.084499979019164L15.280285326766968,21.975999979019164Q17.364685326766967,21.290199979019164,18.99948532676697,19.826499979019164L19.258085326766967,19.594999979019164L19.131585326766967,19.271699979019164Q18.518485326766967,17.705399979019163,19.36088532676697,16.249199979019167Q20.20238532676697,14.793599979019165,21.86688532676697,14.538199979019165L22.20988532676697,14.485599979019165L22.280485326766968,14.145799979019165Q22.726985326766968,11.998999979019166,22.280485326766968,9.852189979019165L22.20968532676697,9.511629979019165L21.865785326766968,9.459619979019166Q20.201485326766967,9.207959979019165,19.36078532676697,7.748669979019165Q18.518985326766966,6.293089979019165,19.131585326766967,4.727179979019165L19.258085326766967,4.404069979019165L18.99958532676697,4.1725699790191655Q17.364885326766967,2.708261979019165,15.280385326766968,2.0220689790191653L14.950085326766967,1.9133669790191652L14.733185326766968,2.1850799790191653Q13.683385326766969,3.500379979019165,11.999585326766967,3.498999979019165Q10.316665326766968,3.500379979019165,9.266775326766968,2.1850799790191653L9.049895326766968,1.9133669790191652L8.719665326766968,2.0220689790191653Q6.635065326766968,2.7082629790191652,5.000385326766968,4.1725699790191655L4.834075326766968,4.321549979019165ZM5.918505326766968,4.700199979019165Q7.177355326766968,3.647109979019165,8.717975326766968,3.081338979019165Q10.017605326766967,4.500619979019165,12.000385326766967,4.498999979019165Q13.982485326766968,4.500619979019165,15.281985326766968,3.0813409790191653Q16.822485326766966,3.6470499790191653,18.081285326766967,4.699989979019165Q17.503185326766967,6.534209979019165,18.49518532676697,8.249329979019166Q19.484685326766968,9.967019979019165,21.36378532676697,10.382989979019165Q21.643385326766968,11.999359979019165,21.36368532676697,13.615699979019166Q19.48588532676697,14.034899979019166,18.49508532676697,15.748799979019164Q17.50268532676697,17.464199979019163,18.081185326766967,19.298999979019165Q16.82238532676697,20.351399979019163,15.281985326766968,20.916799979019164Q13.982085326766967,19.497999979019166,11.999485326766967,19.499999979019165Q10.017495326766968,19.498399979019165,8.717915326766967,20.917699979019165Q7.177615326766968,20.352399979019165,5.918825326766967,19.299999979019166Q6.497305326766968,17.465199979019165,5.504795326766968,15.749599979019164Q4.514965326766967,14.032599979019166,2.636181326766968,13.616999979019164Q2.356504326766968,12.000469979019165,2.636188326766968,10.383989979019166Q4.5153853267669675,9.967959979019165,5.505255326766967,8.249579979019165Q6.497035326766968,6.534769979019165,5.918505326766968,4.700199979019165ZM8.633495326766969,11.094439979019166Q8.264675326766968,12.489459979019164,8.986165326766969,13.739099979019166Q9.707655326766968,14.988699979019165,11.100205326766968,15.366799979019165Q12.492785326766969,15.744799979019165,13.747085326766967,15.031699979019166Q15.013285326766967,14.311799979019165,15.394985326766967,12.906099979019166Q15.776585326766968,11.500419979019165,15.048285326766967,10.239009979019166Q14.319985326766968,8.977609979019165,12.911885326766967,8.605309979019165Q11.503675326766968,8.233019979019165,10.247125326766968,8.969659979019166Q9.002315326766968,9.699419979019165,8.633495326766969,11.094439979019166ZM11.362205326766968,14.401699979019165Q10.367535326766967,14.131699979019166,9.852185326766968,13.239099979019166Q9.336825326766967,12.346489979019164,9.600275326766969,11.350049979019165Q9.863715326766968,10.353599979019165,10.752875326766969,9.832339979019165Q11.650405326766968,9.306169979019165,12.656285326766968,9.572099979019164Q13.662085326766968,9.838019979019165,14.182285326766968,10.739019979019165Q14.702485326766968,11.640029979019165,14.429885326766968,12.644099979019165Q14.157285326766967,13.648099979019165,13.252885326766968,14.162299979019165Q12.356885326766967,14.671799979019164,11.362205326766968,14.401699979019165Z" fill-rule="evenodd" fill="url(#master_svg1_25_35171)" fill-opacity="1" style="mix-blend-mode:passthrough"/></g></g></svg>