<svg xmlns="http://www.w3.org/2000/svg" xmlns:xlink="http://www.w3.org/1999/xlink" fill="none" version="1.1" width="24" height="24" viewBox="0 0 24 24"><defs><clipPath id="master_svg0_44_28115"><rect x="0" y="0" width="24" height="24" rx="0"/></clipPath></defs><g clip-path="url(#master_svg0_44_28115)"><g><g><rect x="3" y="12.75" width="18" height="5.25" rx="2.625" fill="#EF89FF" fill-opacity="1"/><rect x="3.5" y="13.25" width="17" height="4.25" rx="2.125" fill-opacity="0" stroke-opacity="1" stroke="#EF89FF" fill="none" stroke-width="1"/></g><g><path d="M12,5.957107L13.89645,7.85355Q13.96677,7.9238800000000005,14.05866,7.96194Q14.15054,8,14.25,8Q14.29925,8,14.34755,7.99039Q14.39584,7.98078,14.44134,7.96194Q14.48684,7.94309,14.52778,7.91573Q14.56873,7.88838,14.60355,7.85355Q14.63837,7.81873,14.66573,7.7777899999999995Q14.69309,7.73684,14.71194,7.69134Q14.73078,7.64584,14.74039,7.59755Q14.75,7.54925,14.75,7.5Q14.75,7.4005399999999995,14.71194,7.30866Q14.67388,7.21677,14.60355,7.14645L14.6034,7.1462900000000005L12.35355,4.896447Q12.31873,4.861625,12.27779,4.834265Q12.23684,4.806906,12.19134,4.78806Q12.14584,4.769215,12.09755,4.759607Q12.04925,4.75,12,4.75Q11.95075,4.75,11.90245,4.759607Q11.85416,4.769215,11.80866,4.78806Q11.76316,4.806906,11.72221,4.834265Q11.68127,4.861625,11.64645,4.896447L9.396447,7.14645Q9.32612,7.21677,9.28806,7.30866Q9.25,7.4005399999999995,9.25,7.5Q9.25,7.54925,9.259607,7.59755Q9.269214999999999,7.64584,9.28806,7.69134Q9.306906,7.73684,9.334265,7.77778Q9.361625,7.81873,9.396447,7.85355Q9.431269,7.88838,9.472215,7.91573Q9.513161,7.94309,9.558658,7.96194Q9.604155,7.98078,9.6524549,7.99039Q9.7007543,8,9.75,8Q9.8494562,8,9.941342,7.96194Q10.033227,7.9238800000000005,10.103553,7.85355L12,5.957107Z" fill-rule="evenodd" fill="#EF89FF" fill-opacity="1"/></g><g><path d="M11.5,7.125Q11.5,7.0757543,11.509607,7.0274549Q11.519214999999999,6.979155,11.53806,6.933658Q11.556906,6.888161,11.584265,6.847215Q11.611625,6.806269,11.646447,6.771447Q11.681269,6.736625,11.722215,6.709265Q11.763161,6.681906,11.808658,6.66306Q11.854155,6.644215,11.9024549,6.634607Q11.9507543,6.625,12,6.625Q12.0492457,6.625,12.0975451,6.634607Q12.145845,6.644215,12.191342,6.66306Q12.236839,6.681906,12.277785,6.709265Q12.318731,6.736625,12.353553,6.771447Q12.388375,6.806269,12.415735,6.847215Q12.443094,6.888161,12.46194,6.933658Q12.480785000000001,6.979155,12.490393,7.0274549Q12.5,7.0757543,12.5,7.125L12.5,11.625Q12.5,11.67425,12.490393,11.72255Q12.480785000000001,11.77084,12.46194,11.81634Q12.443094,11.86184,12.415735,11.90278Q12.388375,11.94373,12.353553,11.97855Q12.318731,12.01337,12.277785,12.04073Q12.236839,12.06809,12.191342,12.08694Q12.145845,12.10578,12.0975451,12.11539Q12.0492457,12.125,12,12.125Q11.9507543,12.125,11.9024549,12.11539Q11.854155,12.10578,11.808658,12.08694Q11.763161,12.06809,11.722215,12.04073Q11.681269,12.01337,11.646447,11.97855Q11.611625,11.94373,11.584265,11.90278Q11.556906,11.86184,11.53806,11.81634Q11.519214999999999,11.77084,11.509607,11.72255Q11.5,11.67425,11.5,11.625L11.5,7.125Z" fill-rule="evenodd" fill="#EF89FF" fill-opacity="1"/></g></g></g></svg>